<svg width="28" height="23" viewBox="0 0 28 23" fill="none" xmlns="http://www.w3.org/2000/svg">
<path d="M28 7.5933C27.8476 12.7289 25.3714 17.8644 20.5714 23L18.1714 21.3493C21.3714 18.1212 23.0095 15.4801 23.0857 13.4258C23.0095 12.5455 22.0952 11.8852 20.3429 11.445C19.9619 11.3716 19.581 11.2616 19.2 11.1148C16.6857 10.1611 15.4286 8.437 15.4286 5.94258C15.4286 5.0622 15.619 4.2185 16 3.41148C17.0667 1.13716 18.8571 0 21.3714 0C22.1333 0 22.8952 0.110048 23.6571 0.330144C26.5524 1.28389 28 3.70494 28 7.5933ZM12.4571 7.5933C12.3048 12.8756 9.82857 18.0112 5.02857 23L2.74286 21.3493C5.86667 18.0478 7.46667 15.4067 7.54286 13.4258C7.46667 12.5455 6.59048 11.8852 4.91429 11.445C4.60952 11.3716 4.26667 11.2982 3.88571 11.2249C1.29524 10.2711 0 8.51037 0 5.94258C0 5.13557 0.152381 4.32855 0.457143 3.52153C1.44762 1.17384 3.2381 0 5.82857 0C6.59048 0 7.35238 0.110048 8.11429 0.330144C11.0095 1.28389 12.4571 3.70494 12.4571 7.5933Z" fill="#1C1C1C"/>
</svg>
